<svg id="Capa_1" data-name="Capa 1" xmlns="http://www.w3.org/2000/svg" viewBox="0 0 792 792"><defs><style>.cls-1{fill:none;}</style></defs><title>pointer</title><path class="cls-1" d="M396,160.5A91.47,91.47,0,1,0,487.4,252,91.55,91.55,0,0,0,396,160.5Z"/><path d="M396,23.22c-126.49,0-229.39,103-229.39,229.51,0,54.44,26.5,128.1,52.76,177C253.35,492.77,362.11,685,396,744.75c33.09-58.9,138.5-246.4,178.2-315.65,25.17-44.05,51.21-122.07,51.21-176.37C625.38,126.18,522.48,23.22,396,23.22Zm0,343.43a114.69,114.69,0,0,1,0-229.37c63.19,0,114.61,51.45,114.61,114.7S459.2,366.65,396,366.65Z"/><path d="M396,0C256.72,0,143.4,113.38,143.4,252.73c0,62.49,29.91,140.3,55.54,188,40.34,74.94,185.52,330.86,187,333.42L396.07,792l10.07-17.94c1.4-2.5,141.09-251.29,188.19-333.43,26.32-46.05,54.27-127.54,54.27-187.9C648.6,113.38,535.29,0,396,0ZM574.16,429.1C534.46,498.35,429.05,685.85,396,744.75c-33.85-59.75-142.61-252-176.58-315.07-26.26-48.85-52.76-122.51-52.76-177,0-126.55,102.9-229.51,229.39-229.51s229.37,103,229.36,229.51C625.37,307,599.33,385.05,574.16,429.1Z"/><path d="M396,137.28a114.69,114.69,0,0,0,0,229.37c63.19,0,114.6-51.44,114.61-114.67S459.2,137.28,396,137.28Zm0,206.15A91.47,91.47,0,1,1,487.4,252,91.54,91.54,0,0,1,396,343.43Z"/></svg>