<svg id="Layer_1" data-name="Layer 1" xmlns="http://www.w3.org/2000/svg" viewBox="0 0 64 64"><defs><style>.cls-1{fill:#010101;}</style></defs><title>star</title><path class="cls-1" d="M33.56,4l6.09,18.76a1.63,1.63,0,0,0,1.56,1.13H60.93a1.63,1.63,0,0,1,1,3l-16,11.6a1.63,1.63,0,0,0-.6,1.83L51.44,59a1.64,1.64,0,0,1-2.52,1.83L33,49.24a1.65,1.65,0,0,0-1.92,0l-16,11.6A1.64,1.64,0,0,1,12.56,59l6.1-18.76a1.63,1.63,0,0,0-.6-1.83L2.11,26.82a1.63,1.63,0,0,1,1-3H22.79a1.63,1.63,0,0,0,1.56-1.13L30.44,4A1.64,1.64,0,0,1,33.56,4Z"/></svg>