<?xml version="1.0" encoding="utf-8"?>
<!-- Generator: Adobe Illustrator 23.0.6, SVG Export Plug-In . SVG Version: 6.00 Build 0)  -->
<svg version="1.1" id="Layer_1" xmlns="http://www.w3.org/2000/svg" xmlns:xlink="http://www.w3.org/1999/xlink" x="0px" y="0px"
	 viewBox="0 0 64 64" style="enable-background:new 0 0 64 64;" xml:space="preserve">
<style type="text/css">
	.st0{fill:#FFFFFF;}
</style>
<title>arrow</title>
<path class="st0" d="M50.6,10.4L31.8,29.2c-1.4,1.4-1.4,3.7,0,5.1c0,0,0,0,0,0l18.8,18.8c0.7,0.7,1.1,1.6,1.1,2.6V58
	c0,2-1.6,3.6-3.6,3.6c0,0,0,0,0,0h-5.7c-1,0-1.9-0.4-2.6-1.1L13.4,34.3c-1.4-1.4-1.4-3.7,0-5.1c0,0,0,0,0,0L39.2,3.4
	c0.7-0.7,1.6-1.1,2.6-1.1H48c2,0,3.6,1.6,3.7,3.6c0,0,0,0,0,0.1v1.8C51.6,8.8,51.3,9.7,50.6,10.4z"/>
</svg>
