<?xml version="1.0" encoding="utf-8"?>
<!-- Generator: Adobe Illustrator 23.0.6, SVG Export Plug-In . SVG Version: 6.00 Build 0)  -->
<svg version="1.1" id="Layer_1" xmlns="http://www.w3.org/2000/svg" xmlns:xlink="http://www.w3.org/1999/xlink" x="0px" y="0px"
	 viewBox="0 0 64 64" style="enable-background:new 0 0 64 64;" xml:space="preserve">
<style type="text/css">
	.st0{fill:#0D447B;}
</style>
<title>hamburger</title>
<path class="st0" d="M6.9,14h50.2c1,0,1.9,0.9,1.9,1.9v5.2c0,1-0.9,1.9-1.9,1.9H6.9c-1,0-1.9-0.9-1.9-1.9v-5.2C5,14.9,5.9,14,6.9,14
	z"/>
<path class="st0" d="M6.9,27.5h50.2c1,0,1.9,0.9,1.9,1.9v5.2c0,1-0.9,1.9-1.9,1.9H6.9c-1,0-1.9-0.9-1.9-1.9v-5.2
	C5,28.4,5.9,27.5,6.9,27.5z"/>
<path class="st0" d="M6.9,41h50.2c1,0,1.9,0.9,1.9,1.9v5.2c0,1-0.9,1.9-1.9,1.9H6.9c-1,0-1.9-0.9-1.9-1.9v-5.2C5,41.9,5.9,41,6.9,41
	z"/>
</svg>
