<svg id="Layer_1" data-name="Layer 1" xmlns="http://www.w3.org/2000/svg" viewBox="0 0 56.49 62.8"><defs><style>.cls-1{fill:#16467b;}</style></defs><title>logo</title><path class="cls-1" d="M45.28,36.38a5.75,5.75,0,0,1,2.11-4.25L40.8,31.9h-.13l-.12-.06a7.76,7.76,0,0,1-1.82-1.2,11.07,11.07,0,0,1-1.42-1.57,12,12,0,0,1-1.09-1.77,10.27,10.27,0,0,1-.77-1.92c.41.55.82,1.09,1.25,1.6A19,19,0,0,0,38,28.47a12.54,12.54,0,0,0,1.43,1.31,7.54,7.54,0,0,0,1.49.93c1.45,0,2.9,0,4.35.1.75,0,1.51.09,2.26.15l4.15.66c2.91.25,9.07,0,8.51-4.49-.17-1.38,0-1.83-.78-2.13-1.35.71-7,0-7,0s-5-.71-5-5,5-7.82,5-7.82,2.13-1.42,3.55-.71c0-2.13.49-5.83-.71-8.54C53.1.11,51.68.11,50.25,1.53c-2.13,2.14-.71,5-13.51,5.69S16.83,18.6,16.83,18.6c-10,.71-12.09,4.27-12.09,4.27l6.4,3.55s5,2.14.71,3.56S4,41.36,4,41.36l-.28.5A38,38,0,0,0,38,63.4h.19V53.45S44.56,42.07,45.28,36.38ZM28.93,30.46c-.47.15-.95.27-1.44.38-.24.07-.49.1-.73.15l-.74.13-.75.09c-.25,0-.5.06-.75.06a12.15,12.15,0,0,1-3.06-.19L21.08,31l-.38-.11a6.86,6.86,0,0,1-.76-.27,6.48,6.48,0,0,1-.73-.39c-.12-.07-.23-.17-.35-.25a2.56,2.56,0,0,1-.36-.37l.46-.92c-.06,0,0,0,.13-.08a2.61,2.61,0,0,0,.31-.29,6,6,0,0,0,.6-.77c.39-.55.76-1.14,1.11-1.74s.7-1.21,1.06-1.82.7-1.22,1.06-1.83c-.17.69-.38,1.37-.61,2s-.49,1.33-.77,2a16.58,16.58,0,0,1-1,1.93,6.89,6.89,0,0,1-.65.94,2,2,0,0,1-.2.22.08.08,0,0,1,0,0,3.42,3.42,0,0,0,.43.21c.21.08.41.17.63.23l.32.1.34.08a15.1,15.1,0,0,0,2.8.32H26c.48,0,1,0,1.45-.06s1-.05,1.46-.11,1-.09,1.48-.11Q29.65,30.24,28.93,30.46Z" transform="translate(-3.75 -0.6)"/></svg>